<svg width="488" height="488" viewBox="0 0 488 488" fill="none" xmlns="http://www.w3.org/2000/svg">
<path d="M488 244C488 378.757 378.757 488 244 488C109.243 488 0 378.757 0 244C0 109.243 109.243 0 244 0C378.757 0 488 109.243 488 244Z" fill="white"/>
<path fill-rule="evenodd" clip-rule="evenodd" d="M135.502 187.137C134.654 187.201 130.976 187.468 127.329 187.731C114.214 188.678 86.5196 192.85 82.221 194.526C80.0922 195.356 79.9797 196.005 80.0022 207.335C80.0267 219.623 79.7977 218.61 83.4184 222.459C87.8826 227.206 88.2671 228.323 89.7129 240.754C94.0943 278.428 102.123 291.454 124.52 297.23C138.89 300.936 166.793 300.939 182.387 297.237C204.023 292.1 212.72 281.569 229.941 239.661C234.779 227.885 238.05 224.176 243.615 224.158C248.54 224.14 252.385 227.969 255.872 236.361C260.88 248.42 262.114 251.298 264.331 256.121C275.535 280.482 282.808 289.226 296.354 294.617C313.982 301.634 351.191 301.997 368.759 295.325C386.495 288.589 393.063 276.224 397.36 241.487C399.078 227.596 399.159 227.353 403.7 222.554C407.266 218.785 407.007 219.744 407.262 209.351C407.626 194.494 407.865 194.998 399.687 193.357C375.683 188.538 360.964 187.11 335.221 187.101C311.998 187.092 305.955 187.62 270.602 192.741C241.606 196.942 245.447 196.93 217.703 192.896C214.226 192.389 209.229 191.686 206.599 191.332C203.97 190.978 200.916 190.55 199.814 190.383C196.464 189.871 182.723 188.249 176.988 187.688C171.921 187.192 140.362 186.774 135.502 187.137ZM170.12 194.47C185.171 195.401 203.15 200.285 215.902 206.906C222.307 210.233 224.403 214.143 224.706 223.338C225.318 241.832 209.694 275.861 196.649 284.447C182.05 294.055 146.03 297.316 126.712 290.778C105.972 283.758 96.5861 263.972 97.1781 228.516C97.6035 203.044 107.09 196.322 145.373 194.368C150.083 194.128 165.618 194.191 170.12 194.47ZM343.438 194.481C371.215 196.13 381.583 200.057 386.9 210.943C389.652 216.574 390.26 220.868 390.038 233.058C389.421 266.659 380.294 284.266 360.052 290.898C340.798 297.207 305.328 294.022 290.941 284.692C283.633 279.953 274.788 266.795 269.21 252.365C260.648 230.218 259.992 216.332 267.188 209.584C272.89 204.237 297.356 196.291 312.705 194.802C319.534 194.139 334.962 193.979 343.438 194.481Z" fill="black"/>
</svg>
