<svg id="svg" xmlns="http://www.w3.org/2000/svg" width="400" height="231.67420814479638" viewBox="0, 0, 400,231.67420814479638">
  <g id="svgg">
    <path id="path0" d="M86.727 65.954 C 85.897 66.015,82.300 66.272,78.733 66.525 C 65.907 67.435,38.822 71.446,34.618 73.057 C 32.536 73.855,32.426 74.479,32.448 85.370 C 32.472 97.183,32.248 96.209,35.789 99.909 C 40.155 104.472,40.531 105.546,41.945 117.496 C 46.230 153.712,54.082 166.234,75.986 171.787 C 90.040 175.349,117.329 175.352,132.580 171.793 C 153.740 166.855,162.245 156.732,179.087 116.445 C 183.819 105.125,187.018 101.560,192.461 101.542 C 197.277 101.525,201.038 105.206,204.448 113.273 C 209.346 124.865,210.552 127.632,212.721 132.268 C 223.678 155.687,230.791 164.092,244.039 169.275 C 261.279 176.020,297.669 176.369,314.851 169.955 C 332.196 163.480,338.620 151.594,342.822 118.201 C 344.503 104.847,344.582 104.614,349.023 100.000 C 352.510 96.377,352.257 97.299,352.506 87.308 C 352.862 73.026,353.096 73.511,345.098 71.933 C 321.622 67.301,307.227 65.928,282.051 65.919 C 259.339 65.911,253.429 66.418,218.854 71.341 C 190.496 75.379,194.252 75.368,167.119 71.490 C 163.718 71.003,158.831 70.327,156.259 69.987 C 153.688 69.646,150.701 69.235,149.623 69.074 C 146.347 68.582,132.908 67.023,127.300 66.484 C 122.344 66.007,91.480 65.605,86.727 65.954 M120.583 73.003 C 135.303 73.898,152.886 78.593,165.357 84.958 C 171.621 88.156,173.671 91.915,173.968 100.754 C 174.566 118.532,159.286 151.245,146.528 159.498 C 132.250 168.735,97.023 171.869,78.130 165.584 C 57.846 158.836,48.667 139.816,49.246 105.732 C 49.662 81.245,58.940 74.783,96.380 72.905 C 100.987 72.674,116.180 72.735,120.583 73.003 M290.087 73.014 C 317.253 74.599,327.393 78.374,332.593 88.839 C 335.284 94.252,335.879 98.380,335.661 110.098 C 335.058 142.399,326.132 159.324,306.335 165.700 C 287.505 171.765,252.816 168.703,238.745 159.734 C 231.598 155.178,222.948 142.529,217.492 128.658 C 209.119 107.368,208.477 94.019,215.515 87.532 C 221.091 82.392,245.019 74.754,260.030 73.322 C 266.709 72.685,281.797 72.531,290.087 73.014" stroke="none" fill="#000000" fill-rule="evenodd"></path>
  </g>
</svg>
